<svg xmlns="http://www.w3.org/2000/svg" xmlns:xlink="http://www.w3.org/1999/xlink" viewBox="0 0 945.58 534.8"><defs><style>.cls-1,.cls-10,.cls-11,.cls-12,.cls-14,.cls-15,.cls-16,.cls-17,.cls-18,.cls-19,.cls-20,.cls-21,.cls-22,.cls-23,.cls-24,.cls-25,.cls-26,.cls-28,.cls-29,.cls-30,.cls-31,.cls-32,.cls-5,.cls-6,.cls-7,.cls-8,.cls-9{fill:none;}.cls-2{isolation:isolate;}.cls-3{fill:#fff;}.cls-4{clip-path:url(#clip-path);}.cls-10,.cls-12,.cls-15,.cls-21,.cls-24,.cls-29,.cls-32,.cls-5,.cls-7,.cls-9{stroke:#59f8e0;}.cls-10,.cls-11,.cls-12,.cls-14,.cls-15,.cls-20,.cls-23,.cls-24,.cls-26,.cls-28,.cls-31,.cls-32,.cls-5,.cls-6,.cls-7,.cls-8,.cls-9{stroke-linecap:round;stroke-linejoin:round;}.cls-16,.cls-20,.cls-21,.cls-5{stroke-width:3px;}.cls-14,.cls-16,.cls-17,.cls-18,.cls-19,.cls-20,.cls-22,.cls-23,.cls-25,.cls-26,.cls-28,.cls-30,.cls-31,.cls-6,.cls-8{stroke:#010101;}.cls-7{stroke-width:1.57px;}.cls-8{stroke-width:0.52px;}.cls-9{stroke-width:5.28px;}.cls-10,.cls-25,.cls-26,.cls-29{stroke-width:2px;}.cls-11{stroke:#000;}.cls-11,.cls-12{stroke-width:3.07px;}.cls-13,.cls-39{fill:#59f8e0;}.cls-14{stroke-width:1.41px;}.cls-15{stroke-width:9px;}.cls-16,.cls-17,.cls-18,.cls-19,.cls-21,.cls-22,.cls-25,.cls-29,.cls-30{stroke-miterlimit:10;}.cls-17{stroke-width:2.3px;}.cls-18{stroke-width:1.38px;}.cls-19{stroke-width:1.77px;}.cls-23{stroke-width:6px;}.cls-24{stroke-width:4px;}.cls-27{fill:#010101;}.cls-28{stroke-width:1.03px;}.cls-30{stroke-width:1.36px;}.cls-31{stroke-width:5px;}.cls-33,.cls-34,.cls-35{mix-blend-mode:multiply;}.cls-33{fill:url(#radial-gradient);}.cls-34{fill:url(#radial-gradient-2);}.cls-35{fill:url(#radial-gradient-3);}.cls-36{font-size:20px;font-family:Montserrat-Bold, Montserrat Bold;font-weight:700;letter-spacing:0.4em;}.cls-37{letter-spacing:0.42em;}.cls-38{letter-spacing:0.4em;}.cls-39{font-family:Montserrat-Medium, Montserrat Medium;font-weight:500;}</style><clipPath id="clip-path" transform="translate(38.33 19.73)"><rect class="cls-1" width="750" height="500"/></clipPath><radialGradient id="radial-gradient" cx="331.83" cy="293.5" r="167.5" gradientTransform="translate(304.73 -148.68) rotate(45)" gradientUnits="userSpaceOnUse"><stop offset="0.01" stop-color="#59595b"/><stop offset="0.1" stop-color="#777779"/><stop offset="0.24" stop-color="#a0a0a2"/><stop offset="0.38" stop-color="#c3c3c3"/><stop offset="0.53" stop-color="#ddddde"/><stop offset="0.68" stop-color="#f0f0f0"/><stop offset="0.83" stop-color="#fbfbfb"/><stop offset="1" stop-color="#fff"/></radialGradient><radialGradient id="radial-gradient-2" cx="404.83" cy="296.5" r="167.5" gradientTransform="translate(328.23 -199.42) rotate(45)" xlink:href="#radial-gradient"/><radialGradient id="radial-gradient-3" cx="443.83" cy="236.5" r="155.17" gradientTransform="translate(297.23 -244.57) rotate(45)" gradientUnits="userSpaceOnUse"><stop offset="0.01" stop-color="#59595b"/><stop offset="0.07" stop-color="#808082"/><stop offset="0.14" stop-color="#a2a2a3"/><stop offset="0.22" stop-color="#bfbfc0"/><stop offset="0.3" stop-color="#d7d7d7"/><stop offset="0.4" stop-color="#e9e9e9"/><stop offset="0.51" stop-color="#f5f5f6"/><stop offset="0.67" stop-color="#fdfdfd"/><stop offset="1" stop-color="#fff"/></radialGradient></defs><g class="cls-2"><g id="BACKGROUND"><rect class="cls-3" x="38.33" y="19.73" width="750" height="500"/></g><g id="OBJECTS"><g class="cls-4"><line class="cls-5" x1="109.33" y1="365.02" x2="152.56" y2="321.79"/><line class="cls-6" x1="132.91" y1="365.02" x2="176.14" y2="321.79"/><line class="cls-5" x1="156.49" y1="365.02" x2="199.72" y2="321.79"/><line class="cls-5" x1="180.07" y1="365.02" x2="223.3" y2="321.79"/><line class="cls-5" x1="203.65" y1="365.02" x2="246.88" y2="321.79"/><line class="cls-6" x1="227.23" y1="365.02" x2="270.46" y2="321.79"/><line class="cls-7" x1="295.5" y1="181.68" x2="325.05" y2="152.13"/><line class="cls-8" x1="311.62" y1="181.68" x2="341.16" y2="152.13"/><line class="cls-7" x1="327.73" y1="181.68" x2="357.28" y2="152.13"/><line class="cls-7" x1="343.85" y1="181.68" x2="373.39" y2="152.13"/><line class="cls-7" x1="359.96" y1="181.68" x2="389.51" y2="152.13"/><line class="cls-8" x1="376.08" y1="181.68" x2="405.62" y2="152.13"/><line class="cls-9" x1="130.77" y1="256.23" x2="145.69" y2="271.15"/><line class="cls-9" x1="145.69" y1="256.23" x2="130.77" y2="271.15"/><line class="cls-5" x1="626.11" y1="353.05" x2="638.33" y2="365.27"/><line class="cls-5" x1="638.33" y1="353.05" x2="626.11" y2="365.27"/><line class="cls-5" x1="382.11" y1="40.38" x2="394.33" y2="52.6"/><line class="cls-5" x1="394.33" y1="40.38" x2="382.11" y2="52.6"/><line class="cls-10" x1="603.7" y1="39.2" x2="614.75" y2="50.25"/><line class="cls-10" x1="614.75" y1="39.2" x2="603.7" y2="50.25"/><line class="cls-11" x1="603.7" y1="64.88" x2="614.75" y2="75.93"/><line class="cls-11" x1="614.75" y1="64.88" x2="603.7" y2="75.93"/><line class="cls-12" x1="603.7" y1="90.56" x2="614.75" y2="101.62"/><line class="cls-12" x1="614.75" y1="90.56" x2="603.7" y2="101.62"/><line class="cls-12" x1="73.36" y1="1.53" x2="84.42" y2="12.59"/><line class="cls-12" x1="84.42" y1="1.53" x2="73.36" y2="12.59"/><line class="cls-11" x1="73.36" y1="27.22" x2="84.42" y2="38.27"/><line class="cls-11" x1="84.42" y1="27.22" x2="73.36" y2="38.27"/><line class="cls-12" x1="73.36" y1="52.9" x2="84.42" y2="63.95"/><line class="cls-12" x1="84.42" y1="52.9" x2="73.36" y2="63.95"/><circle class="cls-13" cx="531" cy="113.28" r="6.36"/><circle class="cls-13" cx="505.02" cy="139.27" r="6.36"/><path class="cls-13" d="M445.2,150a6.36,6.36,0,1,1,0-9A6.36,6.36,0,0,1,445.2,150Z" transform="translate(38.33 19.73)"/><path class="cls-13" d="M419.21,176a6.36,6.36,0,1,1,0-9A6.36,6.36,0,0,1,419.21,176Z" transform="translate(38.33 19.73)"/><circle class="cls-14" cx="538.33" cy="113.28" r="6.36"/><circle class="cls-14" cx="512.34" cy="139.27" r="6.36"/><path class="cls-14" d="M452.52,150a6.36,6.36,0,1,1,0-9A6.34,6.34,0,0,1,452.52,150Z" transform="translate(38.33 19.73)"/><circle class="cls-14" cx="460.38" cy="191.24" r="6.36"/><circle class="cls-15" cx="748.32" cy="393.83" r="78.75" transform="translate(-20.97 664.22) rotate(-45)"/><circle class="cls-13" cx="464.03" cy="342.09" r="45.28"/><circle class="cls-16" cx="481.56" cy="359.62" r="45.28"/><circle class="cls-17" cx="443.22" cy="339.89" r="20.59" transform="translate(48.19 711.98) rotate(-76.6)"/><circle class="cls-13" cx="744.46" cy="141.19" r="27.12"/><circle class="cls-18" cx="716.62" cy="131.96" r="27.12" transform="translate(518.92 841.07) rotate(-81.53)"/><circle class="cls-18" cx="754.96" cy="151.69" r="12.34"/><path class="cls-19" d="M104.67,19.59c14.43,0,14.43,14.15,28.85,14.15S148,19.59,162.38,19.59s14.43,14.15,28.85,14.15,14.43-14.15,28.86-14.15S234.52,33.74,249,33.74s14.43-14.15,28.86-14.15,14.43,14.15,28.86,14.15" transform="translate(38.33 19.73)"/><path class="cls-20" d="M218.33,432.85c16.35,0,16.35,16,32.7,16s16.35-16,32.7-16,16.35,16,32.7,16,16.35-16,32.71-16" transform="translate(38.33 19.73)"/><path class="cls-5" d="M218.33,418.82c16.35,0,16.35,16,32.7,16s16.35-16,32.7-16,16.35,16,32.7,16,16.35-16,32.71-16" transform="translate(38.33 19.73)"/><path class="cls-20" d="M218.33,404.79c16.35,0,16.35,16,32.7,16s16.35-16,32.7-16,16.35,16,32.7,16,16.35-16,32.71-16" transform="translate(38.33 19.73)"/><path class="cls-16" d="M245.17,82.35c16.35,0,16.35,16,32.7,16s16.35-16,32.7-16,16.35,16,32.7,16,16.35-16,32.7-16" transform="translate(38.33 19.73)"/><path class="cls-21" d="M245.17,68.32c16.35,0,16.35,16,32.7,16s16.35-16,32.7-16,16.35,16,32.7,16,16.35-16,32.7-16" transform="translate(38.33 19.73)"/><path class="cls-22" d="M245.17,54.29c16.35,0,16.35,16,32.7,16s16.35-16,32.7-16,16.35,16,32.7,16,16.35-16,32.7-16" transform="translate(38.33 19.73)"/><path class="cls-10" d="M-35.33,172.83c24.47,0,24.47,24,48.95,24s24.47-24,49-24,24.47,24,48.95,24,24.47-24,49-24" transform="translate(38.33 19.73)"/><path class="cls-23" d="M-35.33,151.83c24.47,0,24.47,24,48.95,24s24.47-24,49-24,24.47,24,48.95,24,24.47-24,49-24" transform="translate(38.33 19.73)"/><path class="cls-24" d="M-35.33,130.83c24.47,0,24.47,24,48.95,24s24.47-24,49-24,24.47,24,48.95,24,24.47-24,49-24" transform="translate(38.33 19.73)"/><path class="cls-16" d="M619.32,215.79c15.9,0,15.9,15.6,31.81,15.6s15.9-15.6,31.8-15.6,15.91,15.6,31.81,15.6,15.91-15.6,31.81-15.6,15.9,15.6,31.81,15.6,15.9-15.6,31.81-15.6,15.91,15.6,31.81,15.6" transform="translate(38.33 19.73)"/><path class="cls-21" d="M684.58,195.4c15.9,0,15.9,15.6,31.81,15.6s15.9-15.6,31.8-15.6S764.1,211,780,211s15.9-15.6,31.81-15.6,15.9,15.6,31.81,15.6,15.9-15.6,31.81-15.6S891.34,211,907.24,211" transform="translate(38.33 19.73)"/><path class="cls-25" d="M-37.23,376c15.9,0,15.9,15.6,31.81,15.6S10.48,376,26.38,376s15.91,15.6,31.81,15.6S74.1,376,90,376s15.9,15.6,31.81,15.6,15.9-15.6,31.81-15.6,15.91,15.6,31.81,15.6" transform="translate(38.33 19.73)"/><path class="cls-26" d="M625.68,58.48a3.95,3.95,0,1,1-3.94-3.94A3.94,3.94,0,0,1,625.68,58.48Z" transform="translate(38.33 19.73)"/><path class="cls-5" d="M647.77,58.48a3.95,3.95,0,1,1-3.94-3.94A3.95,3.95,0,0,1,647.77,58.48Z" transform="translate(38.33 19.73)"/><path class="cls-26" d="M669.86,58.48a3.95,3.95,0,1,1-4-3.94A4,4,0,0,1,669.86,58.48Z" transform="translate(38.33 19.73)"/><path class="cls-6" d="M691.94,58.48A3.94,3.94,0,1,1,688,54.54,3.94,3.94,0,0,1,691.94,58.48Z" transform="translate(38.33 19.73)"/><path class="cls-26" d="M625.68,36a3.95,3.95,0,1,1-3.94-3.94A3.93,3.93,0,0,1,625.68,36Z" transform="translate(38.33 19.73)"/><path class="cls-6" d="M647.77,36a3.95,3.95,0,1,1-3.94-3.94A3.94,3.94,0,0,1,647.77,36Z" transform="translate(38.33 19.73)"/><path class="cls-26" d="M669.86,36a3.95,3.95,0,1,1-4-3.94A3.94,3.94,0,0,1,669.86,36Z" transform="translate(38.33 19.73)"/><circle class="cls-10" cx="726.33" cy="55.73" r="3.94"/><path class="cls-10" d="M625.68,13.52a3.95,3.95,0,1,1-3.94-3.95A3.93,3.93,0,0,1,625.68,13.52Z" transform="translate(38.33 19.73)"/><path class="cls-26" d="M647.77,13.52a3.95,3.95,0,1,1-3.94-3.95A3.94,3.94,0,0,1,647.77,13.52Z" transform="translate(38.33 19.73)"/><path class="cls-26" d="M669.86,13.52a3.95,3.95,0,1,1-4-3.95A3.94,3.94,0,0,1,669.86,13.52Z" transform="translate(38.33 19.73)"/><path class="cls-26" d="M691.94,13.52A3.94,3.94,0,1,1,688,9.57,3.93,3.93,0,0,1,691.94,13.52Z" transform="translate(38.33 19.73)"/><path class="cls-26" d="M625.68-9A3.94,3.94,0,0,1,621.74-5a4,4,0,0,1-4-3.94,4,4,0,0,1,4-3.95A3.94,3.94,0,0,1,625.68-9Z" transform="translate(38.33 19.73)"/><path class="cls-26" d="M647.77-9A4,4,0,0,1,643.83-5a4,4,0,0,1-4-3.94,4,4,0,0,1,4-3.95A4,4,0,0,1,647.77-9Z" transform="translate(38.33 19.73)"/><path class="cls-10" d="M669.86-9a4,4,0,0,1-4,3.94A3.94,3.94,0,0,1,662-9a3.94,3.94,0,0,1,3.94-3.95A4,4,0,0,1,669.86-9Z" transform="translate(38.33 19.73)"/><path class="cls-26" d="M691.94-9A3.94,3.94,0,0,1,688-5,3.94,3.94,0,0,1,684.06-9,3.94,3.94,0,0,1,688-12.91,3.94,3.94,0,0,1,691.94-9Z" transform="translate(38.33 19.73)"/><path class="cls-27" d="M363.32,256.06a3,3,0,1,1-3-3A3,3,0,0,1,363.32,256.06Z" transform="translate(38.33 19.73)"/><path class="cls-10" d="M380.07,256.06a3,3,0,1,1-3-3A3,3,0,0,1,380.07,256.06Z" transform="translate(38.33 19.73)"/><path class="cls-10" d="M346.56,239a3,3,0,1,1-3-3A3,3,0,0,1,346.56,239Z" transform="translate(38.33 19.73)"/><path class="cls-26" d="M363.32,239a3,3,0,1,1-3-3A3,3,0,0,1,363.32,239Z" transform="translate(38.33 19.73)"/><path class="cls-27" d="M380.07,239a3,3,0,1,1-3-3A3,3,0,0,1,380.07,239Z" transform="translate(38.33 19.73)"/><path class="cls-26" d="M396.83,239a3,3,0,1,1-3-3A3,3,0,0,1,396.83,239Z" transform="translate(38.33 19.73)"/><path class="cls-27" d="M363.32,221.94a3,3,0,1,1-3-3A3,3,0,0,1,363.32,221.94Z" transform="translate(38.33 19.73)"/><path class="cls-10" d="M380.07,221.94a3,3,0,1,1-3-3A3,3,0,0,1,380.07,221.94Z" transform="translate(38.33 19.73)"/><polygon class="cls-13" points="231.92 275.89 239.33 263.06 246.74 275.89 231.92 275.89"/><polygon class="cls-28" points="231.92 263.06 239.33 250.23 246.74 263.06 231.92 263.06"/><polygon class="cls-13" points="231.92 250.23 239.33 237.4 246.74 250.23 231.92 250.23"/><polygon class="cls-28" points="231.92 237.4 239.33 224.56 246.74 237.4 231.92 237.4"/><polygon class="cls-13" points="231.92 224.56 239.33 211.73 246.74 224.56 231.92 224.56"/><polygon class="cls-26" points="470.24 36.9 462.83 49.73 455.42 36.9 470.24 36.9"/><polygon class="cls-28" points="470.24 62.56 462.83 75.39 455.42 62.56 470.24 62.56"/><polygon class="cls-28" points="274.33 384.06 266.92 396.89 259.51 384.06 274.33 384.06"/><polygon class="cls-13" points="70.59 124.73 78 111.89 85.41 124.73 70.59 124.73"/><polygon class="cls-13" points="752.59 299.39 760 286.56 767.41 299.39 752.59 299.39"/><polygon class="cls-27" points="796.33 59.73 788.92 72.56 781.51 59.73 796.33 59.73"/><polygon class="cls-28" points="470.24 88.23 462.83 101.06 455.42 88.23 470.24 88.23"/><polygon class="cls-28" points="665.41 420.73 658 433.56 650.59 420.73 665.41 420.73"/><polygon class="cls-13" points="665.41 446.39 658 459.23 650.59 446.39 665.41 446.39"/><polygon class="cls-28" points="665.41 472.06 658 484.89 650.59 472.06 665.41 472.06"/><polygon class="cls-28" points="578.85 451.89 586.26 439.06 593.67 451.89 578.85 451.89"/><polygon class="cls-13" points="578.85 439.06 586.26 426.23 593.67 439.06 578.85 439.06"/><polygon class="cls-28" points="578.85 426.23 586.26 413.39 593.67 426.23 578.85 426.23"/><polygon class="cls-28" points="578.85 413.39 586.26 400.56 593.67 413.39 578.85 413.39"/><polygon class="cls-13" points="578.85 400.56 586.26 387.73 593.67 400.56 578.85 400.56"/><polygon class="cls-28" points="661.85 196.23 669.26 183.4 676.67 196.23 661.85 196.23"/><polygon class="cls-28" points="661.85 183.4 669.26 170.56 676.67 183.4 661.85 183.4"/><polygon class="cls-28" points="661.85 170.56 669.26 157.73 676.67 170.56 661.85 170.56"/><polygon class="cls-28" points="661.85 157.73 669.26 144.9 676.67 157.73 661.85 157.73"/><polygon class="cls-28" points="661.85 144.9 669.26 132.06 676.67 144.9 661.85 144.9"/><circle class="cls-27" cx="607" cy="250.73" r="1.92"/><path class="cls-27" d="M562.11,231.58A1.88,1.88,0,1,1,564,229.7,1.88,1.88,0,0,1,562.11,231.58Z" transform="translate(38.33 19.73)"/><path class="cls-27" d="M556.56,227.76a1.78,1.78,0,1,1,1.77-1.78A1.77,1.77,0,0,1,556.56,227.76Z" transform="translate(38.33 19.73)"/><circle class="cls-27" cx="591.18" cy="240.16" r="1.61"/><path class="cls-27" d="M551.54,215.3a1.43,1.43,0,1,1,1.42-1.42A1.43,1.43,0,0,1,551.54,215.3Z" transform="translate(38.33 19.73)"/><circle class="cls-27" cx="591.18" cy="227.05" r="1.24"/><path class="cls-27" d="M556.56,202.83a1.07,1.07,0,1,1,1.07-1.07A1.07,1.07,0,0,1,556.56,202.83Z" transform="translate(38.33 19.73)"/><path class="cls-27" d="M562.11,199a1,1,0,1,1,1-1A1,1,0,0,1,562.11,199Z" transform="translate(38.33 19.73)"/><circle class="cls-27" cx="607" cy="216.48" r="0.93"/><path class="cls-27" d="M575.22,199a1,1,0,1,1,1-1A1,1,0,0,1,575.22,199Z" transform="translate(38.33 19.73)"/><path class="cls-27" d="M580.78,202.83a1.07,1.07,0,1,1,1.06-1.06A1.06,1.06,0,0,1,580.78,202.83Z" transform="translate(38.33 19.73)"/><circle class="cls-27" cx="622.82" cy="227.05" r="1.24"/><circle class="cls-27" cx="624.12" cy="233.6" r="1.42"/><circle class="cls-27" cx="622.82" cy="240.16" r="1.61"/><path class="cls-27" d="M580.77,227.76a1.78,1.78,0,1,1,1.78-1.77A1.77,1.77,0,0,1,580.77,227.76Z" transform="translate(38.33 19.73)"/><path class="cls-27" d="M575.22,231.58a1.88,1.88,0,1,1,1.88-1.88A1.88,1.88,0,0,1,575.22,231.58Z" transform="translate(38.33 19.73)"/><circle class="cls-27" cx="474.21" cy="490.73" r="3"/><path class="cls-27" d="M425.87,472a2.95,2.95,0,1,1,2.94-2.94A2.94,2.94,0,0,1,425.87,472Z" transform="translate(38.33 19.73)"/><circle class="cls-27" cx="417.4" cy="463.35" r="2.78" transform="translate(-68.49 820.87) rotate(-80.78)"/><circle class="cls-27" cx="411.73" cy="454.88" r="2.51" transform="translate(-64.89 808.16) rotate(-80.78)"/><circle class="cls-27" cx="448.08" cy="464.6" r="2.23"/><path class="cls-27" d="M411.73,436.81a1.94,1.94,0,1,1,1.94-1.94A1.94,1.94,0,0,1,411.73,436.81Z" transform="translate(38.33 19.73)"/><path class="cls-27" d="M417.4,428.07a1.67,1.67,0,1,1,1.67-1.67A1.67,1.67,0,0,1,417.4,428.07Z" transform="translate(38.33 19.73)"/><path class="cls-27" d="M425.87,422.25a1.52,1.52,0,1,1,1.52-1.52A1.52,1.52,0,0,1,425.87,422.25Z" transform="translate(38.33 19.73)"/><circle class="cls-27" cx="474.21" cy="438.48" r="1.45"/><path class="cls-27" d="M445.88,422.25a1.52,1.52,0,1,1,1.51-1.52A1.51,1.51,0,0,1,445.88,422.25Z" transform="translate(38.33 19.73)"/><path class="cls-27" d="M454.35,428.07A1.67,1.67,0,1,1,456,426.4,1.67,1.67,0,0,1,454.35,428.07Z" transform="translate(38.33 19.73)"/><path class="cls-27" d="M460,436.81a1.94,1.94,0,1,1,1.94-1.94A1.94,1.94,0,0,1,460,436.81Z" transform="translate(38.33 19.73)"/><circle class="cls-27" cx="500.33" cy="464.6" r="2.23"/><circle class="cls-27" cx="460.02" cy="454.88" r="2.51" transform="translate(-100.72 230.39) rotate(-22.5)"/><path class="cls-27" d="M454.35,466.13a2.78,2.78,0,1,1,2.78-2.78A2.78,2.78,0,0,1,454.35,466.13Z" transform="translate(38.33 19.73)"/><circle class="cls-27" cx="484.21" cy="488.75" r="2.94"/><path class="cls-25" d="M45.84,469.69a4.08,4.08,0,1,1-4.08-4.08A4.08,4.08,0,0,1,45.84,469.69Z" transform="translate(38.33 19.73)"/><path class="cls-29" d="M60.29,455.24a4.08,4.08,0,1,1-4.07-4.08A4.07,4.07,0,0,1,60.29,455.24Z" transform="translate(38.33 19.73)"/><path class="cls-29" d="M74.74,440.78a4.08,4.08,0,1,1-4.07-4.07A4.08,4.08,0,0,1,74.74,440.78Z" transform="translate(38.33 19.73)"/><path class="cls-25" d="M89.19,426.33a4.08,4.08,0,1,1-4.07-4.07A4.08,4.08,0,0,1,89.19,426.33Z" transform="translate(38.33 19.73)"/><path class="cls-25" d="M644.29,300.78a4.08,4.08,0,1,1-4.07-4.07A4.08,4.08,0,0,1,644.29,300.78Z" transform="translate(38.33 19.73)"/><path class="cls-29" d="M658.74,286.33a4.08,4.08,0,1,1-4.07-4.07A4.08,4.08,0,0,1,658.74,286.33Z" transform="translate(38.33 19.73)"/><path class="cls-29" d="M673.19,271.88a4.08,4.08,0,1,1-4.07-4.07A4.08,4.08,0,0,1,673.19,271.88Z" transform="translate(38.33 19.73)"/><path class="cls-25" d="M687.64,257.43a4.07,4.07,0,1,1-4.07-4.07A4.07,4.07,0,0,1,687.64,257.43Z" transform="translate(38.33 19.73)"/><polygon class="cls-13" points="543.26 278.56 550.67 265.73 558.08 278.56 543.26 278.56"/><polygon class="cls-13" points="527.88 495.39 539.33 475.56 550.78 495.39 527.88 495.39"/><polygon class="cls-28" points="533.38 492.39 544.83 472.56 556.28 492.39 533.38 492.39"/><polygon class="cls-13" points="522.85 64.39 530.26 51.56 537.67 64.39 522.85 64.39"/><polygon class="cls-13" points="604.21 312.36 589.3 320.97 574.39 312.36 574.39 295.14 589.3 286.53 604.21 295.14 604.21 312.36"/><polygon class="cls-30" points="593 325.94 578.09 334.55 563.18 325.94 563.18 308.73 578.09 300.12 593 308.73 593 325.94"/><polygon class="cls-13" points="267.08 152.49 252.18 161.1 237.27 152.49 237.27 135.28 252.18 126.67 267.08 135.28 267.08 152.49"/><polygon class="cls-30" points="255.88 166.08 240.97 174.69 226.06 166.08 226.06 148.86 240.97 140.25 255.88 148.86 255.88 166.08"/><polygon class="cls-13" points="217.25 511.82 202.34 520.43 187.43 511.82 187.43 494.61 202.34 486 217.25 494.61 217.25 511.82"/><polygon class="cls-30" points="206.04 525.41 191.13 534.02 176.22 525.41 176.22 508.2 191.13 499.59 206.04 508.2 206.04 525.41"/><circle class="cls-16" cx="285.83" cy="222.33" r="24.83" transform="translate(59.23 488.92) rotate(-80.85)"/><circle class="cls-13" cx="324.17" cy="242.06" r="8.17"/><circle class="cls-25" cx="324.17" cy="242.06" r="16.17"/><circle class="cls-25" cx="41.67" cy="302.23" r="24.83"/><circle class="cls-29" cx="41.67" cy="302.23" r="8.17"/><circle class="cls-25" cx="41.67" cy="302.23" r="16.17"/><circle class="cls-25" cx="579.5" cy="156.73" r="24.83"/><circle class="cls-25" cx="579.5" cy="156.73" r="8.17"/><circle class="cls-25" cx="579.5" cy="156.73" r="16.17"/><circle class="cls-31" cx="748.32" cy="393.83" r="43.68" transform="translate(-57.61 365.5) rotate(-24.5)"/><line class="cls-32" x1="322.07" y1="326.49" x2="306.6" y2="326.49"/><line class="cls-6" x1="331.36" y1="331.54" x2="297.31" y2="331.54"/><line class="cls-32" x1="336" y1="336.58" x2="292.66" y2="336.58"/><line class="cls-6" x1="338.8" y1="341.63" x2="289.87" y2="341.63"/><line class="cls-6" x1="340.33" y1="346.68" x2="288.34" y2="346.68"/><line class="cls-32" x1="340.83" y1="351.73" x2="287.83" y2="351.73"/><line class="cls-6" x1="340.38" y1="356.78" x2="288.29" y2="356.78"/><line class="cls-6" x1="338.89" y1="361.82" x2="289.78" y2="361.82"/><line class="cls-6" x1="336.16" y1="366.87" x2="292.5" y2="366.87"/><line class="cls-32" x1="331.63" y1="371.92" x2="297.03" y2="371.92"/><line class="cls-6" x1="322.79" y1="376.97" x2="305.88" y2="376.97"/><line class="cls-32" x1="515.57" y1="200.49" x2="500.1" y2="200.49"/><line class="cls-6" x1="524.86" y1="205.54" x2="490.81" y2="205.54"/><line class="cls-6" x1="529.5" y1="210.58" x2="486.16" y2="210.58"/><line class="cls-32" x1="532.3" y1="215.63" x2="483.37" y2="215.63"/><line class="cls-6" x1="533.83" y1="220.68" x2="481.84" y2="220.68"/><line class="cls-32" x1="534.33" y1="225.73" x2="481.33" y2="225.73"/><line class="cls-6" x1="533.88" y1="230.78" x2="481.79" y2="230.78"/><line class="cls-32" x1="532.39" y1="235.82" x2="483.28" y2="235.82"/><line class="cls-6" x1="529.66" y1="240.87" x2="486" y2="240.87"/><line class="cls-6" x1="525.13" y1="245.92" x2="490.53" y2="245.92"/><line class="cls-32" x1="516.29" y1="250.97" x2="499.38" y2="250.97"/><line class="cls-6" x1="156.9" y1="77.16" x2="141.43" y2="77.16"/><line class="cls-6" x1="166.19" y1="82.2" x2="132.14" y2="82.2"/><line class="cls-6" x1="170.84" y1="87.25" x2="127.5" y2="87.25"/><line class="cls-6" x1="173.63" y1="92.3" x2="124.7" y2="92.3"/><line class="cls-6" x1="175.16" y1="97.35" x2="123.17" y2="97.35"/><line class="cls-6" x1="175.67" y1="102.4" x2="122.67" y2="102.4"/><line class="cls-6" x1="175.21" y1="107.44" x2="123.12" y2="107.44"/><line class="cls-6" x1="173.72" y1="112.49" x2="124.61" y2="112.49"/><line class="cls-6" x1="170.99" y1="117.54" x2="127.34" y2="117.54"/><line class="cls-6" x1="166.47" y1="122.59" x2="131.87" y2="122.59"/><line class="cls-6" x1="157.62" y1="127.64" x2="140.71" y2="127.64"/></g><circle class="cls-33" cx="331.83" cy="293.5" r="167.5" transform="translate(-72.01 340.34) rotate(-45)"/><circle class="cls-34" cx="404.83" cy="296.5" r="167.5" transform="translate(-52.75 392.83) rotate(-45)"/><circle class="cls-35" cx="443.83" cy="236.5" r="155.17" transform="translate(1.1 402.84) rotate(-45)"/><circle class="cls-3" cx="413.33" cy="269.73" r="150.33"/><text class="cls-36" transform="translate(331.4 260.35)">GEOM<tspan class="cls-37" x="84.62" y="0">E</tspan><tspan class="cls-38" x="102.78" y="0">TRIC</tspan><tspan class="cls-39"><tspan x="23.46" y="24">MODERN</tspan></tspan></text></g></g></svg>