<svg xmlns="http://www.w3.org/2000/svg" xmlns:xlink="http://www.w3.org/1999/xlink" viewBox="0 0 58.25 42.1"><defs><style>.cls-1,.cls-4,.cls-5{fill:none;}.cls-2{clip-path:url(#clip-path);}.cls-3{fill:#010101;}.cls-4{stroke:#59f8e0;}.cls-4,.cls-5{stroke-linecap:round;stroke-linejoin:round;stroke-width:2px;}.cls-5{stroke:#010101;}</style><clipPath id="clip-path" transform="translate(-339.58 -217.95)"><rect class="cls-1" width="750" height="500"/></clipPath></defs><g id="Layer_2" data-name="Layer 2"><g id="OBJECTS"><g class="cls-2"><path class="cls-3" d="M363.32,256.06a3,3,0,1,1-3-3A3,3,0,0,1,363.32,256.06Z" transform="translate(-339.58 -217.95)"/><path class="cls-4" d="M380.07,256.06a3,3,0,1,1-3-3A3,3,0,0,1,380.07,256.06Z" transform="translate(-339.58 -217.95)"/><path class="cls-4" d="M346.56,239a3,3,0,1,1-3-3A3,3,0,0,1,346.56,239Z" transform="translate(-339.58 -217.95)"/><path class="cls-5" d="M363.32,239a3,3,0,1,1-3-3A3,3,0,0,1,363.32,239Z" transform="translate(-339.58 -217.95)"/><path class="cls-3" d="M380.07,239a3,3,0,1,1-3-3A3,3,0,0,1,380.07,239Z" transform="translate(-339.58 -217.95)"/><path class="cls-5" d="M396.83,239a3,3,0,1,1-3-3A3,3,0,0,1,396.83,239Z" transform="translate(-339.58 -217.95)"/><path class="cls-3" d="M363.32,221.94a3,3,0,1,1-3-3A3,3,0,0,1,363.32,221.94Z" transform="translate(-339.58 -217.95)"/><path class="cls-4" d="M380.07,221.94a3,3,0,1,1-3-3A3,3,0,0,1,380.07,221.94Z" transform="translate(-339.58 -217.95)"/></g></g></g></svg>