<svg width="396.35875244140624px" height="256.00251464843745px" xmlns="http://www.w3.org/2000/svg" viewBox="51.82062377929688 -53.00125732421873 396.35875244140624 256.00251464843745" style="background: none;" preserveAspectRatio="xMidYMid"><defs><filter id="editing-hover" x="-100%" y="-100%" width="300%" height="300%"><feFlood flood-color="rgba(75.58730788457962%,75.58730788457962%,75.58730788457962%,0.112)" result="flood"></feFlood><feComposite operator="in" in2="SourceAlpha" in="flood" result="shadow"></feComposite><feOffset dx="-4" dy="-4" in="SourceGraphic" result="offset-1"></feOffset><feOffset dx="4" dy="4" in="shadow" result="offset-2"></feOffset><feMerge><feMergeNode in="offset-2"></feMergeNode><feMergeNode in="offset-1"></feMergeNode></feMerge></filter></defs><g filter="url(#editing-hover)"><g transform="translate(116.07469177246094, 126.90999984741211)"><path d="M42.70 7.56L42.70 7.56L79.06-55.75L79.06-55.75Q79.06-56.12 78.69-56.12L78.69-56.12L78.69-56.12Q43.68-23.91 30.99-9.03L30.99-9.03L30.99-9.03Q29.28-7.08 22.51-0.37L22.51-0.37L22.51-0.37Q15.74 6.34 14.33 7.44L14.33 7.44L14.33 7.44Q12.93 8.54 9.39 9.15L9.39 9.15L9.39 9.15Q8.66 9.15 8.66 8.30L8.66 8.30L8.66 8.30Q8.66 7.44 18.36-4.21L18.36-4.21L18.36-4.21Q28.06-15.86 39.65-30.07L39.65-30.07L39.65-30.07Q51.24-44.29 60.94-60.39L60.94-60.39L60.94-60.39Q70.64-76.49 70.64-85.28L70.64-85.28L70.64-85.28Q70.64-90.40 65.39-90.40L65.39-90.40L65.39-90.40Q56.49-90.40 45.08-83.20L45.08-83.20L45.08-83.20Q33.67-76.01 24.58-66.37L24.58-66.37L24.58-66.37Q15.49-56.73 9.15-46.79L9.15-46.79L9.15-46.79Q2.81-36.84 2.81-31.35L2.81-31.35L2.81-31.35Q2.81-27.94 6.83-27.94L6.83-27.94L6.83-27.94Q10.86-27.94 16.16-30.62L16.16-30.62L16.16-30.62Q21.47-33.31 26.23-37.21L26.23-37.21L26.23-37.21Q35.87-45.14 41.97-51.61L41.97-51.61L44.41-54.29L44.41-54.29Q44.90-54.66 45.26-54.66L45.26-54.66L45.26-54.66Q45.63-54.66 45.63-53.92L45.63-53.92L45.63-53.92Q30.38-36.72 15.86-29.28L15.86-29.28L15.86-29.28Q10.00-26.35 5.49-26.35L5.49-26.35L5.49-26.35Q0-26.35 0-32.45L0-32.45L0-32.45Q0-37.33 3.48-44.77L3.48-44.77L3.48-44.77Q6.95-52.22 13.36-60.21L13.36-60.21L13.36-60.21Q19.76-68.20 27.63-75.21L27.63-75.21L27.63-75.21Q35.50-82.23 45.45-86.80L45.45-86.80L45.45-86.80Q55.39-91.38 64.90-91.38L64.90-91.38L64.90-91.38Q73.32-91.38 73.32-83.08L73.32-83.08L73.32-83.08Q73.32-77.23 69.30-68.08L69.30-68.08L69.30-68.08Q65.27-58.93 59.54-50.02L59.54-50.02L59.54-50.02Q48.19-32.33 38.43-20.25L38.43-20.25L34.40-15.37L89.30-68.81L89.30-68.81Q92.60-71.86 92.96-71.86L92.96-71.86L92.96-71.86Q93.82-71.86 93.82-70.82L93.82-70.82L93.82-70.82Q93.82-69.78 91.50-67.34L91.50-67.34L91.50-67.34Q71.49-35.62 57.10-9.64L57.10-9.64L56.73-8.30L56.73-8.30Q65.88-19.15 84.30-37.09L84.30-37.09L84.30-37.09Q102.72-55.02 115.41-66.25L115.41-66.25L115.41-66.25Q128.10-77.47 140.30-85.52L140.30-85.52L140.30-85.52Q152.50-93.57 158.72-93.57L158.72-93.57L158.72-93.57Q160.55-93.57 160.55-91.62L160.55-91.62L160.55-91.62Q160.55-91.13 159.76-90.65L159.76-90.65L159.76-90.65Q158.97-90.16 154.82-87.11L154.82-87.11L154.82-87.11Q142.74-78.57 142.62-78.69L142.62-78.69L142.62-78.69Q142.25-78.69 142.25-78.93L142.25-78.93L142.50-79.67L142.50-79.67Q142.50-80.15 141.89-80.15L141.89-80.15L141.89-80.15Q137.13-80.15 123.28-69.30L123.28-69.30L123.28-69.30Q109.43-58.44 94.12-43.68L94.12-43.68L94.12-43.68Q78.81-28.91 64.72-14.03L64.72-14.03L64.72-14.03Q50.63 0.85 44.65 8.91L44.65 8.91L44.65 8.91Q43.55 10.25 42.70 10.25L42.70 10.25L42.70 10.25Q41.85 10.25 41.85 9.70L41.85 9.70L41.85 9.70Q41.85 9.15 42.70 7.56ZM109.56-31.35L109.56-31.35L109.56-31.35Q109.56-31.72 109.07-31.72L109.07-31.72L109.07-31.72Q105.77-31.72 98.82-25.99L98.82-25.99L98.82-25.99Q91.87-20.25 86.74-13.42L86.74-13.42L86.74-13.42Q92.84-15.37 101.20-22.20L101.20-22.20L101.20-22.20Q109.56-29.04 109.56-31.35ZM81.37-2.56L81.37-2.56L81.37-2.56Q81.37-0.98 82.59-0.98L82.59-0.98L82.59-0.98Q84.06-0.98 89.18-2.99L89.18-2.99L89.18-2.99Q94.31-5.00 97.60-6.95L97.60-6.95L109.56-14.52L109.68-12.93L109.68-12.93Q96.87-4.39 90.58-2.07L90.58-2.07L90.58-2.07Q84.30 0.24 82.23 0.24L82.23 0.24L82.23 0.24Q78.81 0.24 78.81-4.03L78.81-4.03L78.81-4.03Q78.81-9.76 82.96-15.49L82.96-15.49L82.96-15.49Q87.11-21.23 92.66-24.89L92.66-24.89L92.66-24.89Q98.21-28.55 103.39-30.87L103.39-30.87L103.39-30.87Q108.58-33.18 111.26-33.18L111.26-33.18L111.26-33.18Q113.95-33.18 113.95-31.35L113.95-31.35L113.95-31.35Q113.95-26.84 103.27-20.37L103.27-20.37L103.27-20.37Q92.60-13.91 85.52-11.83L85.52-11.83L85.52-11.83Q81.37-5.86 81.37-2.56ZM175.44-80.28L175.44-80.28L175.44-80.28Q171.78-80.28 148.47-56.85L148.47-56.85L148.47-56.85Q125.17-33.43 113.09-16.71L113.09-16.71L113.09-16.71Q124.32-25.25 150.00-50.20L150.00-50.20L150.00-50.20Q175.68-75.15 175.68-79.91L175.68-79.91L175.68-79.91Q175.68-80.15 175.44-80.28ZM177.75-82.47L177.75-82.47L177.75-82.47Q178.85-82.47 178.85-81.13L178.85-81.13L178.85-81.13Q178.85-75.27 152.68-49.96L152.68-49.96L152.68-49.96Q126.51-24.64 111.14-13.91L111.14-13.91L111.14-13.91Q105.77-6.22 105.77-2.81L105.77-2.81L105.77-2.81Q105.77-1.71 106.26-1.71L106.26-1.71L106.26-1.71Q111.26-1.71 124.20-9.76L124.20-9.76L131.52-14.52L131.64-12.93L131.64-12.93Q128.59-10.98 124.68-8.54L124.68-8.54L124.68-8.54Q110.53 0.24 105.04 0.24L105.04 0.24L105.04 0.24Q103.58 0.24 103.58-2.07L103.58-2.07L103.58-2.07Q103.58-9.15 113.46-23.00L113.46-23.00L113.46-23.00Q123.34-36.84 136.09-49.84L136.09-49.84L136.09-49.84Q148.84-62.83 161.10-72.65L161.10-72.65L161.10-72.65Q173.36-82.47 177.75-82.47ZM149.21-21.47L149.21-21.47Q149.21-22.33 149.82-23.42L149.82-23.42L149.82-23.42Q150.43-24.52 151.04-24.52L151.04-24.52L151.04-24.52Q151.65-24.52 152.13-23.67L152.13-23.67L152.13-23.67Q158.97-29.04 158.97-31.60L158.97-31.60L158.97-31.60Q158.97-31.96 158.36-31.96L158.36-31.96L158.36-31.96Q154.45-31.96 147.62-26.47L147.62-26.47L147.62-26.47Q140.79-20.98 135.48-13.85L135.48-13.85L135.48-13.85Q130.17-6.71 130.17-2.56L130.17-2.56L130.17-2.56Q130.17-1.46 131.27-1.46L131.27-1.46L131.27-1.46Q135.79-1.46 149.08-9.76L149.08-9.76L156.40-14.52L156.53-12.93L156.53-12.93Q153.48-10.98 149.57-8.54L149.57-8.54L149.57-8.54Q135.42 0.24 129.93 0.24L129.93 0.24L129.93 0.24Q127.49 0.24 127.49-4.88L127.49-4.88L127.49-4.88Q127.49-10.00 132.49-16.77L132.49-16.77L132.49-16.77Q137.49-23.55 145.06-28.55L145.06-28.55L145.06-28.55Q152.62-33.55 158.84-33.55L158.84-33.55L158.84-33.55Q161.28-33.55 161.28-31.60L161.28-31.60L161.28-31.60Q161.28-28.91 157.08-24.52L157.08-24.52L157.08-24.52Q152.87-20.13 151.04-20.13L151.04-20.13L151.04-20.13Q149.21-20.13 149.21-21.47L149.21-21.47ZM181.29-27.45L181.29-27.45L181.29-27.57L181.29-27.57Q178.85-26.35 175.92-21.78L175.92-21.78L175.92-21.78Q173.00-17.20 172.51-13.91L172.51-13.91L172.51-13.91Q181.29-22.94 181.29-27.45ZM155.31-1.95L155.31-1.95L155.31-1.95Q159.94-1.95 170.31-11.71L170.31-11.71L170.31-12.32L170.31-12.32Q170.31-16.10 174.03-21.66L174.03-21.66L174.03-21.66Q177.75-27.21 180.80-28.79L180.80-28.79L180.80-28.79Q180.44-29.16 179.83-29.16L179.83-29.16L179.83-29.16Q175.31-29.16 164.88-18.79L164.88-18.79L164.88-18.79Q154.45-8.42 154.45-2.68L154.45-2.68L154.45-2.68Q154.45-1.95 155.31-1.95ZM151.52-3.66L151.52-3.66L151.52-3.66Q151.52-12.81 162.08-21.90L162.08-21.90L162.08-21.90Q172.63-30.99 179.58-30.99L179.58-30.99L179.58-30.99Q183-30.99 183-27.94L183-27.94L183-27.94Q183-19.28 173.73-10.61L173.73-10.61L173.73-10.61Q174.46-10.37 175.19-10.37L175.19-10.37L175.19-10.37Q178.61-10.37 185.07-14.64L185.07-14.64L185.68-13.42L185.68-13.42Q177.88-8.17 173.85-8.17L173.85-8.17L173.85-8.17Q172.26-8.17 171.53-8.78L171.53-8.78L171.53-8.78Q166.77-4.88 161.53-2.44L161.53-2.44L161.53-2.44Q156.28 0 153.90 0L153.90 0L153.90 0Q151.52 0 151.52-3.66ZM192.03-17.32L183.49-12.08L183.12-13.42L188.25-16.96L188.25-16.96Q193.74-20.62 195.81-22.45L195.81-22.45L195.81-22.45Q197.88-24.28 198.80-24.95L198.80-24.95L198.80-24.95Q199.71-25.62 200.87-26.96L200.87-26.96L200.87-26.96Q202.03-28.30 202.28-28.55L202.28-28.55L202.28-28.55Q202.28-28.55 203.74-30.50L203.74-30.50L203.74-30.50Q204.96-31.96 205.08-32.21L205.08-32.21L205.08-32.21Q207.03-31.72 207.03-29.28L207.03-29.28L207.03-29.28Q203.62-24.16 197.03-16.59L197.03-16.59L197.03-16.59Q190.44-9.03 190.44-8.72L190.44-8.72L190.44-8.72Q190.44-8.42 190.63-8.42L190.63-8.42L190.63-8.42Q190.81-8.42 192.46-9.70L192.46-9.70L192.46-9.70Q194.10-10.98 201.42-16.10L201.42-16.10L201.42-16.10Q216.31-26.35 221.55-29.89L221.55-29.89L221.55-29.89Q223.63-31.60 224.42-31.60L224.42-31.60L224.42-31.60Q225.21-31.60 225.76-31.05L225.76-31.05L225.76-31.05Q226.31-30.50 226.31-29.52L226.31-29.52L226.31-29.52Q226.31-28.55 224.36-25.50L224.36-25.50L224.36-25.50Q222.41-22.45 220.21-19.64L220.21-19.64L220.21-19.64Q214.48-12.32 213.13-10.98L213.13-10.98L213.13-10.98Q212.52-10.00 212.52-9.82L212.52-9.82L212.52-9.82Q212.52-9.64 212.65-9.64L212.65-9.64L212.65-9.64Q213.50-9.64 239.73-28.79L239.73-28.79L239.73-28.79Q244-31.84 245.46-31.84L245.46-31.84L245.46-31.84Q246.56-31.84 246.56-29.46L246.56-29.46L246.56-29.46Q246.56-27.08 242.90-22.33L242.90-22.33L242.90-22.33Q239.24-17.57 234.85-13.54L234.85-13.54L234.85-13.54Q223.14-2.81 223.14-1.71L223.14-1.71L223.14-1.71Q223.14-1.59 223.63-1.59L223.63-1.59L223.63-1.59Q225.09-1.59 240.10-11.22L240.10-11.22L245.10-14.52L245.22-12.93L245.22-12.93Q225.58 0.12 221.31 0.12L221.31 0.12L221.31 0.12Q220.58 0.12 220.58-0.61L220.58-0.61L220.58-0.61Q220.58-5.12 226.25-11.29L226.25-11.29L226.25-11.29Q231.92-17.45 237.53-22.39L237.53-22.39L237.53-22.39Q243.15-27.33 243.15-28.91L243.15-28.91L243.15-28.91Q243.15-29.16 242.96-29.16L242.96-29.16L242.96-29.16Q242.78-29.16 242.17-28.79L242.17-28.79L242.17-28.79Q241.56-28.43 226.86-18.06L226.86-18.06L226.86-18.06Q212.16-7.69 209.72-5.92L209.72-5.92L209.72-5.92Q207.28-4.15 203.74-0.61L203.74-0.61L203.74-0.61Q202.52 0.37 199.96 0.37L199.96 0.37L199.96 0.37Q197.40 0.37 197.40-0.18L197.40-0.18L197.40-0.18Q197.40-0.73 198.37-1.71L198.37-1.71L198.37-1.71Q205.69-9.03 214.05-18.30L214.05-18.30L214.05-18.30Q222.41-27.57 222.77-28.30L222.77-28.30L222.77-28.30Q222.77-28.67 222.41-28.67L222.41-28.67L222.41-28.67Q221.19-28.67 207.40-18.97L207.40-18.97L207.40-18.97Q193.61-9.27 191.42-7.69L191.42-7.69L191.42-7.69Q185.68-3.42 185.38-3.23L185.38-3.23L185.38-3.23Q185.07-3.05 184.10-1.95L184.10-1.95L184.10-1.95Q181.90 0.37 180.07 0.37L180.07 0.37L180.07 0.37Q178.24-0.12 178.12-0.37L178.12-0.37L178.12-0.37Q180.93-3.54 192.03-17.32L192.03-17.32ZM271.57-31.35L271.57-31.35L271.57-31.35Q271.57-31.72 271.08-31.72L271.08-31.72L271.08-31.72Q267.79-31.72 260.84-25.99L260.84-25.99L260.84-25.99Q253.88-20.25 248.76-13.42L248.76-13.42L248.76-13.42Q254.86-15.37 263.22-22.20L263.22-22.20L263.22-22.20Q271.57-29.04 271.57-31.35ZM243.39-2.56L243.39-2.56L243.39-2.56Q243.39-0.98 244.61-0.98L244.61-0.98L244.61-0.98Q246.07-0.98 251.20-2.99L251.20-2.99L251.20-2.99Q256.32-5.00 259.62-6.95L259.62-6.95L271.57-14.52L271.69-12.93L271.69-12.93Q258.88-4.39 252.60-2.07L252.60-2.07L252.60-2.07Q246.32 0.24 244.24 0.24L244.24 0.24L244.24 0.24Q240.83 0.24 240.83-4.03L240.83-4.03L240.83-4.03Q240.83-9.76 244.98-15.49L244.98-15.49L244.98-15.49Q249.12-21.23 254.68-24.89L254.68-24.89L254.68-24.89Q260.23-28.55 265.41-30.87L265.41-30.87L265.41-30.87Q270.60-33.18 273.28-33.18L273.28-33.18L273.28-33.18Q275.96-33.18 275.96-31.35L275.96-31.35L275.96-31.35Q275.96-26.84 265.29-20.37L265.29-20.37L265.29-20.37Q254.61-13.91 247.54-11.83L247.54-11.83L247.54-11.83Q243.39-5.86 243.39-2.56Z" fill="#ffffff"></path></g></g><style>text {
  font-size: 64px;
  font-family: Arial Black;
  dominant-baseline: central;
  text-anchor: middle;
}</style></svg>