<svg width="512" height="427" viewBox="0 0 512 427" fill="none" xmlns="http://www.w3.org/2000/svg">
<circle cx="254.529" cy="213.333" r="213.333" fill="#FFF000"/>
<path d="M0 77.4049H118.139C146.965 77.4049 172.575 83.0393 194.967 94.3081C217.359 105.321 234.733 121.072 247.087 141.56C259.442 161.793 265.619 185.227 265.619 211.862C265.619 238.497 259.442 262.06 247.087 282.548C234.733 302.781 217.359 318.532 194.967 329.8C172.575 340.813 146.965 346.319 118.139 346.319H0V77.4049ZM115.822 304.061C135.641 304.061 153.014 300.348 167.942 292.921C183.128 285.237 194.71 274.481 202.689 260.651C210.925 246.565 215.043 230.302 215.043 211.862C215.043 193.422 210.925 177.287 202.689 163.458C194.71 149.372 183.128 138.615 167.942 131.188C153.014 123.505 135.641 119.663 115.822 119.663H50.1896V304.061H115.822Z" fill="#202020"/>
<path d="M402.741 350.161C381.893 350.161 361.689 347.216 342.128 341.325C322.824 335.435 307.51 327.623 296.185 317.891L313.558 279.091C324.626 287.798 338.138 294.97 354.096 300.604C370.311 305.982 386.526 308.671 402.741 308.671C422.817 308.671 437.745 305.47 447.526 299.067C457.564 292.665 462.583 284.213 462.583 273.712C462.583 266.029 459.751 259.755 454.089 254.888C448.684 249.766 441.735 245.797 433.241 242.979C424.747 240.162 413.165 236.961 398.494 233.375C377.904 228.509 361.174 223.643 348.305 218.777C335.693 213.911 324.754 206.356 315.489 196.111C306.48 185.611 301.976 171.525 301.976 153.853C301.976 138.999 305.965 125.553 313.944 113.516C322.18 101.223 334.406 91.4909 350.621 84.3199C367.094 77.1488 387.17 73.5633 410.849 73.5633C427.321 73.5633 443.536 75.6122 459.494 79.7099C475.452 83.8077 489.222 89.6982 500.804 97.3814L484.975 136.182C473.135 129.267 460.781 124.017 447.912 120.431C435.043 116.846 422.56 115.053 410.463 115.053C390.644 115.053 375.845 118.382 366.064 125.041C356.541 131.7 351.779 140.536 351.779 151.548C351.779 159.232 354.482 165.506 359.887 170.372C365.549 175.239 372.627 179.08 381.121 181.897C389.615 184.715 401.197 187.916 415.868 191.501C435.944 196.111 452.416 200.978 465.285 206.1C478.154 210.966 489.093 218.521 498.101 228.765C507.367 239.01 512 252.84 512 270.255C512 285.109 507.882 298.555 499.646 310.592C491.667 322.629 479.441 332.233 462.969 339.404C446.496 346.575 426.42 350.161 402.741 350.161Z" fill="#202020"/>
</svg>
